<?xml version="1.0" standalone="no"?>
<!DOCTYPE svg PUBLIC "-//W3C//DTD SVG 20010904//EN"
 "http://www.w3.org/TR/2001/REC-SVG-20010904/DTD/svg10.dtd">
<svg version="1.0" xmlns="http://www.w3.org/2000/svg"
 width="1024.000000pt" height="1024.000000pt" viewBox="0 0 1024.000000 1024.000000"
 preserveAspectRatio="xMidYMid meet">
<metadata>
Created by potrace 1.11, written by Peter Selinger 2001-2013
</metadata>
<g transform="translate(0.000000,1024.000000) scale(0.100000,-0.100000)"
fill="#000000" stroke="none">
<path d="M5185 7748 c-100 -299 -284 -648 -462 -875 -91 -118 -253 -279 -388
-386 -206 -165 -397 -285 -917 -577 -141 -79 -267 -151 -278 -160 -34 -26 -53
-245 -54 -630 -1 -257 2 -336 17 -428 36 -229 94 -404 212 -647 125 -258 274
-457 497 -669 162 -154 177 -156 73 -11 -164 228 -272 492 -332 809 -25 129
-24 492 1 626 9 52 20 100 24 106 4 7 117 95 252 195 506 377 1000 769 1273
1012 45 41 83 67 91 64 8 -3 128 -97 268 -209 313 -251 625 -497 1003 -788
160 -122 295 -229 301 -237 15 -18 51 -193 64 -308 30 -271 -17 -611 -120
-879 -54 -139 -152 -314 -249 -443 -14 -18 -21 -36 -17 -40 13 -12 229 219
326 349 212 281 355 581 424 888 55 249 75 458 83 852 l6 307 -189 124 c-104
68 -299 191 -434 272 -445 269 -593 374 -770 542 -192 182 -335 377 -474 644
-69 133 -167 366 -197 467 -12 42 -26 54 -34 30z"/>
<path d="M5187 5963 c-2 -4 -19 -44 -36 -88 -94 -236 -269 -485 -444 -633
-169 -142 -316 -234 -677 -422 -129 -67 -241 -128 -248 -134 -36 -34 -50 -527
-19 -692 44 -238 179 -504 355 -694 74 -81 216 -203 225 -194 3 3 -19 42 -49
86 -72 105 -118 198 -159 321 -53 159 -68 265 -62 447 2 85 8 165 13 177 5 12
63 59 129 104 295 201 654 465 913 671 l59 47 243 -180 c133 -99 377 -277 541
-395 l298 -215 18 -77 c25 -107 25 -353 -1 -472 -35 -165 -97 -303 -194 -439
-29 -40 -50 -76 -47 -80 4 -3 57 46 119 109 170 175 307 396 371 600 50 162
85 446 85 700 l0 129 -92 57 c-51 32 -160 96 -243 142 -503 285 -641 386 -790
577 -104 134 -216 333 -265 475 -25 69 -35 87 -43 73z"/>
<path d="M2850 5068 c-189 -133 -551 -331 -689 -378 -96 -32 -269 -22 -460 26
-52 13 -97 22 -99 19 -3 -3 28 -40 69 -82 110 -116 259 -292 318 -378 56 -81
160 -319 511 -1170 95 -231 182 -428 192 -437 32 -29 192 -60 336 -66 72 -2
132 -2 132 2 0 4 -44 64 -98 134 -150 193 -175 235 -245 413 -105 263 -358
1014 -345 1023 1 1 40 23 86 49 139 80 291 195 460 347 l61 56 -64 249 c-36
138 -65 251 -65 253 0 8 -24 -7 -100 -60z"/>
<path d="M7400 5118 c0 -2 -29 -113 -65 -248 l-64 -245 37 -33 c71 -63 313
-241 451 -332 l139 -92 -25 -81 c-94 -307 -248 -756 -338 -980 -55 -136 -90
-194 -227 -370 -55 -71 -97 -131 -93 -135 11 -11 203 -5 275 8 89 15 200 49
200 60 0 9 521 1262 593 1427 69 157 142 253 359 478 72 74 129 138 126 140
-2 3 -47 -4 -98 -16 -114 -24 -313 -39 -395 -29 -75 10 -131 32 -317 125 -155
78 -354 194 -474 276 -62 43 -84 55 -84 47z"/>
<path d="M5156 4614 c-44 -115 -138 -266 -219 -351 -113 -119 -221 -194 -533
-367 l-101 -55 -7 -62 c-9 -94 -7 -336 4 -406 15 -90 56 -206 109 -307 57
-109 221 -311 221 -272 0 2 -20 42 -45 89 -81 152 -118 351 -95 511 l12 88
157 115 c173 129 476 369 505 401 l18 21 107 -85 c58 -46 210 -164 336 -260
l230 -176 11 -61 c34 -180 1 -390 -86 -561 -41 -80 -45 -111 -9 -66 226 280
289 456 306 847 l6 151 -84 54 c-46 30 -151 94 -232 144 -168 100 -282 187
-345 263 -71 85 -149 217 -189 322 -21 54 -40 99 -43 99 -3 0 -18 -34 -34 -76z"/>
<path d="M3047 4170 c-48 -33 -106 -64 -130 -71 -48 -13 -201 -16 -234 -5 -13
4 -23 4 -23 -1 0 -4 34 -48 74 -96 41 -49 86 -106 101 -127 32 -46 106 -220
255 -600 l108 -275 49 -27 c67 -39 192 -77 271 -84 107 -8 109 1 16 98 -183
190 -341 484 -405 752 -23 96 -23 99 -5 110 23 14 180 117 185 122 2 2 -28 55
-67 117 -39 63 -74 121 -78 130 -9 26 -22 21 -117 -43z"/>
<path d="M7123 4112 c-39 -64 -74 -124 -78 -132 -5 -14 79 -77 180 -136 18
-10 17 -14 -4 -105 -66 -272 -223 -564 -413 -764 l-79 -83 32 -7 c66 -15 221
21 329 75 l56 28 104 244 c215 503 254 584 332 686 39 52 93 118 120 147 59
65 61 79 11 68 -21 -4 -96 -8 -168 -8 l-130 0 -107 53 c-59 28 -109 52 -110
52 -2 0 -35 -53 -75 -118z"/>
</g>
</svg>
